<svg xmlns="http://www.w3.org/2000/svg" viewBox="0 0 300 300">
  <!-- Abstract 3D geometric pyramid structure -->
  
  <!-- Base gradient definitions -->
  <defs>
    <linearGradient id="topGradient" x1="0%" y1="0%" x2="100%" y2="0%">
      <stop offset="0%" stop-color="#00C9FF" />
      <stop offset="100%" stop-color="#92FE9D" />
    </linearGradient>
    <linearGradient id="leftGradient" x1="0%" y1="0%" x2="100%" y2="100%">
      <stop offset="0%" stop-color="#00C9FF" />
      <stop offset="100%" stop-color="#006F8D" />
    </linearGradient>
    <linearGradient id="rightGradient" x1="0%" y1="0%" x2="100%" y2="100%">
      <stop offset="0%" stop-color="#92FE9D" />
      <stop offset="100%" stop-color="#507C57" />
    </linearGradient>
  </defs>
  
  <!-- Main pyramid structure -->
  <g>
    <!-- Bottom layer -->
    <polygon points="50,200 150,240 250,200 150,160" fill="url(#topGradient)" />
    <polygon points="50,200 150,240 150,160" fill="url(#leftGradient)" />
    <polygon points="250,200 150,240 150,160" fill="url(#rightGradient)" />
    
    <!-- Middle layer -->
    <polygon points="75,175 150,205 225,175 150,145" fill="url(#topGradient)" />
    <polygon points="75,175 150,205 150,145" fill="url(#leftGradient)" />
    <polygon points="225,175 150,205 150,145" fill="url(#rightGradient)" />
    
    <!-- Top layer -->
    <polygon points="100,150 150,170 200,150 150,130" fill="url(#topGradient)" />
    <polygon points="100,150 150,170 150,130" fill="url(#leftGradient)" />
    <polygon points="200,150 150,170 150,130" fill="url(#rightGradient)" />
    
    <!-- Peak -->
    <polygon points="125,125 150,135 175,125 150,115" fill="url(#topGradient)" />
    <polygon points="125,125 150,135 150,115" fill="url(#leftGradient)" />
    <polygon points="175,125 150,135 150,115" fill="url(#rightGradient)" />
  </g>
  
  <!-- Connecting lines between layers -->
  <g stroke="#FFFFFF" stroke-width="1" stroke-opacity="0.6" fill="none">
    <line x1="50" y1="200" x2="75" y2="175" />
    <line x1="250" y1="200" x2="225" y2="175" />
    <line x1="150" y1="240" x2="150" y2="205" />
    <line x1="150" y1="160" x2="150" y2="145" />
    
    <line x1="75" y1="175" x2="100" y2="150" />
    <line x1="225" y1="175" x2="200" y2="150" />
    <line x1="150" y1="205" x2="150" y2="170" />
    <line x1="150" y1="145" x2="150" y2="130" />
    
    <line x1="100" y1="150" x2="125" y2="125" />
    <line x1="200" y1="150" x2="175" y2="125" />
    <line x1="150" y1="170" x2="150" y2="135" />
    <line x1="150" y1="130" x2="150" y2="115" />
  </g>
  
  <!-- Sharp edge highlights -->
  <g stroke="#FFFFFF" stroke-width="0.5" stroke-opacity="0.8">
    <line x1="50" y1="200" x2="150" y2="240" />
    <line x1="150" y1="240" x2="250" y2="200" />
    <line x1="250" y1="200" x2="150" y2="160" />
    <line x1="150" y1="160" x2="50" y2="200" />
    
    <line x1="75" y1="175" x2="150" y2="205" />
    <line x1="150" y1="205" x2="225" y2="175" />
    <line x1="225" y1="175" x2="150" y2="145" />
    <line x1="150" y1="145" x2="75" y2="175" />
    
    <line x1="100" y1="150" x2="150" y2="170" />
    <line x1="150" y1="170" x2="200" y2="150" />
    <line x1="200" y1="150" x2="150" y2="130" />
    <line x1="150" y1="130" x2="100" y2="150" />
    
    <line x1="125" y1="125" x2="150" y2="135" />
    <line x1="150" y1="135" x2="175" y2="125" />
    <line x1="175" y1="125" x2="150" y2="115" />
    <line x1="150" y1="115" x2="125" y2="125" />
  </g>
  
  <!-- Reflection highlights -->
  <polygon points="90,155 150,180 210,155 150,130" fill="white" opacity="0.1" />
  <polygon points="115,130 150,145 185,130 150,115" fill="white" opacity="0.15" />
</svg>
