<svg width="150" height="40" viewBox="0 0 150 40" fill="none" xmlns="http://www.w3.org/2000/svg">
  <path d="M20 0C8.954 0 0 8.954 0 20C0 31.046 8.954 40 20 40C31.046 40 40 31.046 40 20C40 8.954 31.046 0 20 0ZM20 35C11.716 35 5 28.284 5 20C5 11.716 11.716 5 20 5C28.284 5 35 11.716 35 20C35 28.284 28.284 35 20 35Z" fill="#4A00E0"/>
  <path d="M20 10C14.477 10 10 14.477 10 20C10 25.523 14.477 30 20 30C25.523 30 30 25.523 30 20C30 14.477 25.523 10 20 10ZM20 25C17.239 25 15 22.761 15 20C15 17.239 17.239 15 20 15C22.761 15 25 17.239 25 20C25 22.761 22.761 25 20 25Z" fill="#8E2DE2"/>
  <path d="M55 10H50V30H55V22H65V30H70V10H65V18H55V10Z" fill="#333333"/>
  <path d="M75 10V30H90V25H80V22H88V18H80V15H90V10H75Z" fill="#333333"/>
  <path d="M95 10V30H100V10H95Z" fill="#333333"/>
  <path d="M105 10V15H110V30H115V15H120V10H105Z" fill="#333333"/>
  <path d="M125 10V30H140V25H130V10H125Z" fill="#333333"/>
  <path d="M145 10V30H150V10H145Z" fill="#333333"/>
</svg> 